<?xml version="1.0" encoding="utf-8"?>
<!-- Generator: Adobe Illustrator 24.0.1, SVG Export Plug-In . SVG Version: 6.00 Build 0)  -->
<svg version="1.1" id="Layer_1" xmlns="http://www.w3.org/2000/svg" xmlns:xlink="http://www.w3.org/1999/xlink" x="0px" y="0px"
	 viewBox="0 0 233.1 272.3" style="enable-background:new 0 0 233.1 272.3;" xml:space="preserve">
<style type="text/css">
	.st0{fill:none;stroke:#000000;stroke-width:0.5598;stroke-miterlimit:10;}
	.st1{fill:none;stroke:#000000;stroke-miterlimit:10;}
	.st2{fill:none;stroke:#000000;stroke-width:10;stroke-miterlimit:10;}
	.st3{fill:#231F20;}
	.st4{font-family:'NHaasGroteskDSPro-55Rg';}
	.st5{font-size:24px;}
</style>
<line class="st0" x1="8" y1="8.3" x2="224" y2="225.3"/>
<g>
	<line class="st1" x1="224" y1="225.3" x2="8" y2="225.3"/>
</g>
<line class="st1" x1="8" y1="8.3" x2="8" y2="225.3"/>
<polygon class="st2" points="5,12.1 5,228.1 221,228.1 "/>
<polygon points="105.5,181.8 53.3,130.3 53.6,181.8 "/>
<polygon points="223.5,8.8 166.2,8.8 156.8,8.8 99.2,8.8 90,8.8 36.5,8.8 18.5,8.8 90.5,79.8 90.1,25.8 99.3,25.8 99.5,88.8 
	156.5,145.8 156.8,25.8 166.2,25.8 166.2,155.8 223.8,212.8 223.8,8.8 "/>
<text transform="matrix(1 0 0 1 52.2679 266.8031)" class="st3 st4 st5">Design Mind</text>
</svg>
